<svg width="24" height="24" viewBox="0 0 24 24" fill="none" xmlns="http://www.w3.org/2000/svg">
<g clip-path="url(#clip0_6_360)">
<path d="M12 10.4205L13.577 11.9975L12 13.5745L10.423 11.9975L12 10.4205Z" fill="#C6C7D7"/>
<path d="M12 24C18.5911 24 24 18.5911 24 12C24 5.40891 18.5911 0 12 0C5.40891 0 0 5.40891 0 12C0 18.5911 5.40891 24 12 24ZM12 2.85938C17.04 2.85938 21.1406 6.96 21.1406 12C21.1406 17.04 17.04 21.1406 12 21.1406C6.96 21.1406 2.85938 17.04 2.85938 12C2.85938 6.96 6.96 2.85938 12 2.85938Z" fill="#C6C7D7"/>
<path d="M12 19.7344C16.2647 19.7344 19.7344 16.2647 19.7344 12C19.7344 7.73527 16.2647 4.26562 12 4.26562C7.73527 4.26562 4.26562 7.73527 4.26562 12C4.26562 16.2647 7.73527 19.7344 12 19.7344ZM14.1094 18.3281H9.89062V16.9219H14.1094V18.3281ZM16.9219 9.89062H18.3281V14.1094H16.9219V9.89062ZM9.89062 5.67188H14.1094V7.07812H9.89062V5.67188ZM12 8.43427L15.5657 12L12 15.5657L8.43427 12L12 8.43427ZM5.67188 9.89062H7.07812V14.1094H5.67188V9.89062Z" fill="#C6C7D7"/>
</g>
<defs>
<clipPath id="clip0_6_360">
<rect width="24" height="24" fill="white"/>
</clipPath>
</defs>
</svg>
