<svg width="24" height="24" viewBox="0 0 24 24" fill="none" xmlns="http://www.w3.org/2000/svg">
<path fill-rule="evenodd" clip-rule="evenodd" d="M17.9039 7.01391C18.1967 6.72102 18.1967 6.24614 17.9039 5.95325C17.611 5.66036 17.1361 5.66036 16.8432 5.95325L11.9244 10.872L7.00568 5.95325C6.71278 5.66036 6.23791 5.66036 5.94502 5.95325C5.65212 6.24614 5.65212 6.72102 5.94502 7.01391L10.8638 11.9327L5.94501 16.8514C5.65212 17.1443 5.65212 17.6192 5.94501 17.9121C6.2379 18.205 6.71278 18.205 7.00567 17.9121L11.9244 12.9933L16.8432 17.9121C17.1361 18.205 17.611 18.205 17.9039 17.9121C18.1968 17.6192 18.1968 17.1443 17.9039 16.8514L12.9851 11.9327L17.9039 7.01391Z" fill="#C6C7D7"/>
</svg>
