<svg width="41" height="34" viewBox="0 0 41 34" fill="none" xmlns="http://www.w3.org/2000/svg">
<path d="M16.2793 23.2177C16.2386 23.2817 16.2183 23.3567 16.2212 23.4326C16.2241 23.5085 16.2501 23.5817 16.2957 23.6424C16.3412 23.7031 16.4042 23.7484 16.4762 23.7722C16.5482 23.7962 16.6258 23.7974 16.6984 23.7759C19.4734 22.9597 26.3508 20.9942 29.7723 19.9106C32.1822 19.153 34.1957 16.7793 34.4718 14.2322C34.8957 10.3128 32.238 6.87203 28.2244 6.49201C26.2552 6.30913 24.1312 7.09949 22.9178 8.31447C21.7053 9.52945 18.3986 12.9351 16.8811 14.5605C16.8292 14.6159 16.7954 14.6859 16.7843 14.761C16.7732 14.8361 16.7853 14.9129 16.8188 14.9811C16.8524 15.0491 16.9061 15.1053 16.9724 15.1421C17.0388 15.1788 17.1147 15.1944 17.1902 15.1868L20.6866 14.8772C20.7477 14.8717 20.8088 14.8832 20.8636 14.9105C20.9185 14.9379 20.9645 14.9799 20.9964 15.0319C21.0291 15.0841 21.0459 15.1441 21.0459 15.2053C21.0468 15.2667 21.03 15.3268 20.9982 15.3791L16.2793 23.2177Z" fill="#2E54DA"/>
<path d="M9.13443 32.771C8.76865 32.7714 8.4149 32.6397 8.13807 32.4002C7.86123 32.1607 7.6798 31.8294 7.62687 31.4669C7.57404 31.1043 7.65325 30.7348 7.85008 30.426C8.04691 30.1171 8.34826 29.8897 8.69891 29.7852L17.0775 27.2638C17.4631 27.151 17.8775 27.1954 18.2305 27.3874C18.5835 27.5793 18.8465 27.9033 18.962 28.2886C19.0775 28.6739 19.0364 29.0894 18.8474 29.4444C18.6585 29.7994 18.3371 30.0652 17.9533 30.1839L9.57464 32.7053C9.43197 32.7488 9.28356 32.7708 9.13443 32.771Z" fill="#2E54DA"/>
<path d="M1.515 33.9999C1.21727 33.9986 0.926454 33.9098 0.678647 33.7445C0.430751 33.5792 0.236752 33.3448 0.120636 33.0701C0.00443232 32.7955 -0.0287584 32.4928 0.0251397 32.1995C0.0790379 31.9062 0.217634 31.6351 0.423757 31.4199L13.1322 18.3204C13.2711 18.1758 13.437 18.06 13.6206 17.9796C13.804 17.8992 14.0016 17.8558 14.2019 17.8519C14.4021 17.848 14.6012 17.8836 14.7877 17.9568C14.9743 18.0299 15.1446 18.1391 15.2889 18.2782C15.4334 18.4172 15.549 18.5834 15.6292 18.7673C15.7095 18.9511 15.7528 19.149 15.7567 19.3495C15.7607 19.5501 15.7251 19.7495 15.6521 19.9363C15.579 20.1232 15.4699 20.2937 15.3312 20.4384L2.61562 33.5379C2.47295 33.6855 2.30188 33.8026 2.11266 33.882C1.92353 33.9615 1.72015 34.0016 1.515 33.9999Z" fill="#FAE84A"/>
<path d="M22.6249 28.7346C22.2585 28.734 21.9053 28.6013 21.6283 28.3606C21.3522 28.1199 21.1716 27.7876 21.1203 27.4245C21.069 27.0613 21.1495 26.6917 21.3478 26.3835C21.5469 26.0753 21.8496 25.8491 22.2009 25.7464C26.2544 24.5736 29.067 23.727 30.7972 23.1828C34.5444 22.01 37.4526 18.4754 37.8721 14.6054C38.0341 13.2211 37.9172 11.8183 37.5287 10.4801C37.1402 9.14169 36.4879 7.89498 35.61 6.81368C34.7391 5.75206 33.6647 4.87605 32.4504 4.2375C31.2362 3.59895 29.9069 3.21081 28.5404 3.09604C28.2474 3.07025 27.9501 3.05617 27.6527 3.05617C24.9569 3.05617 22.2832 4.12337 20.5008 5.90825C19.2762 7.13493 12.0356 14.6804 11.9607 14.7554C11.8243 14.9079 11.6588 15.0312 11.4738 15.1182C11.2888 15.2051 11.0883 15.254 10.8841 15.2616C10.6799 15.2693 10.4763 15.2357 10.2853 15.1629C10.0944 15.09 9.92003 14.9794 9.77267 14.8376C9.62531 14.6959 9.50796 14.5258 9.4276 14.3376C9.34724 14.1495 9.30556 13.9471 9.30494 13.7424C9.30441 13.5377 9.34494 13.3351 9.42424 13.1464C9.50353 12.9578 9.61992 12.7872 9.76648 12.6445C10.0662 12.3326 17.1008 5.00059 18.3488 3.75278C20.6902 1.40729 24.1683 0 27.6527 0C28.0439 0 28.4342 0.018766 28.8236 0.0539494C30.5928 0.204221 32.3141 0.708429 33.8859 1.53673C35.4569 2.36503 36.8464 3.5006 37.9721 4.87627C39.1067 6.27064 39.9501 7.87876 40.4537 9.60539C40.9573 11.3321 41.1095 13.1424 40.9015 14.929C40.3564 19.9648 36.5791 24.5455 31.715 26.0842C29.9635 26.6354 27.1305 27.4915 23.0514 28.6642C22.9134 28.7081 22.7691 28.7318 22.6249 28.7346Z" fill="#FAE84A"/>
</svg>
