<svg width="24" height="24" viewBox="0 0 24 24" fill="none" xmlns="http://www.w3.org/2000/svg">
<mask id="mask0_12_996" style="mask-type:alpha" maskUnits="userSpaceOnUse" x="-1" y="0" width="25" height="24">
<rect x="-0.00817871" width="24" height="24" fill="#D9D9D9"/>
</mask>
<g mask="url(#mask0_12_996)">
<path d="M9.24183 22L8.84183 18.8C8.62517 18.7167 8.421 18.6167 8.22933 18.5C8.03767 18.3833 7.85017 18.2583 7.66683 18.125L4.69183 19.375L1.94183 14.625L4.51683 12.675C4.50017 12.5583 4.49183 12.4458 4.49183 12.3375V11.6625C4.49183 11.5542 4.50017 11.4417 4.51683 11.325L1.94183 9.375L4.69183 4.625L7.66683 5.875C7.85017 5.74167 8.04183 5.61667 8.24183 5.5C8.44183 5.38333 8.64183 5.28333 8.84183 5.2L9.24183 2H14.7418L15.1418 5.2C15.3585 5.28333 15.5627 5.38333 15.7543 5.5C15.946 5.61667 16.1335 5.74167 16.3168 5.875L19.2918 4.625L22.0418 9.375L19.4668 11.325C19.4835 11.4417 19.4918 11.5542 19.4918 11.6625V12.3375C19.4918 12.4458 19.4752 12.5583 19.4418 12.675L22.0168 14.625L19.2668 19.375L16.3168 18.125C16.1335 18.2583 15.9418 18.3833 15.7418 18.5C15.5418 18.6167 15.3418 18.7167 15.1418 18.8L14.7418 22H9.24183ZM10.9918 20H12.9668L13.3168 17.35C13.8335 17.2167 14.3127 17.0208 14.7543 16.7625C15.196 16.5042 15.6002 16.1917 15.9668 15.825L18.4418 16.85L19.4168 15.15L17.2668 13.525C17.3502 13.2917 17.4085 13.0458 17.4418 12.7875C17.4752 12.5292 17.4918 12.2667 17.4918 12C17.4918 11.7333 17.4752 11.4708 17.4418 11.2125C17.4085 10.9542 17.3502 10.7083 17.2668 10.475L19.4168 8.85L18.4418 7.15L15.9668 8.2C15.6002 7.81667 15.196 7.49583 14.7543 7.2375C14.3127 6.97917 13.8335 6.78333 13.3168 6.65L12.9918 4H11.0168L10.6668 6.65C10.1502 6.78333 9.671 6.97917 9.22933 7.2375C8.78767 7.49583 8.3835 7.80833 8.01683 8.175L5.54183 7.15L4.56683 8.85L6.71683 10.45C6.6335 10.7 6.57517 10.95 6.54183 11.2C6.5085 11.45 6.49183 11.7167 6.49183 12C6.49183 12.2667 6.5085 12.525 6.54183 12.775C6.57517 13.025 6.6335 13.275 6.71683 13.525L4.56683 15.15L5.54183 16.85L8.01683 15.8C8.3835 16.1833 8.78767 16.5042 9.22933 16.7625C9.671 17.0208 10.1502 17.2167 10.6668 17.35L10.9918 20ZM12.0418 15.5C13.0085 15.5 13.8335 15.1583 14.5168 14.475C15.2002 13.7917 15.5418 12.9667 15.5418 12C15.5418 11.0333 15.2002 10.2083 14.5168 9.525C13.8335 8.84167 13.0085 8.5 12.0418 8.5C11.0585 8.5 10.2293 8.84167 9.55433 9.525C8.87933 10.2083 8.54183 11.0333 8.54183 12C8.54183 12.9667 8.87933 13.7917 9.55433 14.475C10.2293 15.1583 11.0585 15.5 12.0418 15.5Z" fill="#C6C7D7"/>
</g>
</svg>
